<svg width="34" height="34" viewBox="0 0 34 34" fill="none" xmlns="http://www.w3.org/2000/svg">
<g filter="url(#filter0_d_313_5306)">
<rect x="2" y="2" width="30" height="30" rx="2" fill="white" shape-rendering="crispEdges"/>
<g clip-path="url(#clip0_313_5306)">
<path d="M24 18H10C8.9 18 8 18.9 8 20V24C8 25.1 8.9 26 10 26H24C25.1 26 26 25.1 26 24V20C26 18.9 25.1 18 24 18ZM24 24H10V20H24V24Z" fill="#F98B1D"/>
<path d="M24 8H10C8.9 8 8 8.9 8 10V14C8 15.1 8.9 16 10 16H24C25.1 16 26 15.1 26 14V10C26 8.9 25.1 8 24 8ZM24 14H10V10H24V14Z" fill="#F98B1D"/>
</g>
</g>
<defs>
<filter id="filter0_d_313_5306" x="0" y="0" width="34" height="34" filterUnits="userSpaceOnUse" color-interpolation-filters="sRGB">
<feFlood flood-opacity="0" result="BackgroundImageFix"/>
<feColorMatrix in="SourceAlpha" type="matrix" values="0 0 0 0 0 0 0 0 0 0 0 0 0 0 0 0 0 0 127 0" result="hardAlpha"/>
<feOffset/>
<feGaussianBlur stdDeviation="1"/>
<feComposite in2="hardAlpha" operator="out"/>
<feColorMatrix type="matrix" values="0 0 0 0 0 0 0 0 0 0 0 0 0 0 0 0 0 0 0.1 0"/>
<feBlend mode="normal" in2="BackgroundImageFix" result="effect1_dropShadow_313_5306"/>
<feBlend mode="normal" in="SourceGraphic" in2="effect1_dropShadow_313_5306" result="shape"/>
</filter>
<clipPath id="clip0_313_5306">
<rect width="24" height="24" fill="white" transform="translate(5 5)"/>
</clipPath>
</defs>
</svg>
