<svg width="16" height="15" viewBox="0 0 16 15" fill="none" xmlns="http://www.w3.org/2000/svg">
<path d="M8 4.3475L8.7275 6.065L9.08 6.8975L9.98 6.9725L11.8325 7.13L10.4225 8.3525L9.74 8.945L9.9425 9.83L10.3625 11.6375L8.7725 10.6775L8 10.1975L7.2275 10.6625L5.6375 11.6225L6.0575 9.815L6.26 8.93L5.5775 8.3375L4.1675 7.115L6.02 6.9575L6.92 6.8825L7.2725 6.05L8 4.3475ZM8 0.5L5.8925 5.4725L0.5 5.93L4.595 9.4775L3.365 14.75L8 11.9525L12.635 14.75L11.405 9.4775L15.5 5.93L10.1075 5.4725L8 0.5Z" fill="#F98B1D"/>
</svg>
