<svg width="50" height="50" viewBox="0 0 50 50" fill="none" xmlns="http://www.w3.org/2000/svg">
<path d="M34.9093 31.6848C34.9093 31.6848 29.3274 30.2577 28.5401 28.705C28.1821 27.9943 28.5361 27.0842 28.8941 26.4578C29.0581 26.2391 29.2181 26.007 29.3724 25.7608V25.758C30.3046 24.2793 31.0154 22.3276 31.0879 19.9168C31.1972 16.2922 28.3745 13.3482 25.0261 13.3398H25.0179H25.0111C21.6626 13.348 18.8403 16.2922 18.9496 19.9168C19.0221 22.3279 19.7328 24.2793 20.6635 25.758L20.6651 25.7608C20.8194 26.007 20.9794 26.2391 21.1434 26.4578C21.5014 27.0838 21.857 27.9942 21.4961 28.705C20.7117 30.2577 15.1269 31.6848 15.1269 31.6848C14.0528 32.0403 13.2777 33.0513 13.2777 34.2407V36.6925H36.7585V34.2407C36.7585 33.0513 35.985 32.04 34.9093 31.6848Z" fill="#F98B1D"/>
<path d="M46.0661 33.0503V33.0478C46.0046 33.0284 42.0028 32.0118 41.4302 30.8828C41.1706 30.3661 41.4261 29.7044 41.6886 29.2511C41.8073 29.0899 41.9238 28.9202 42.0357 28.7425C42.7123 27.6628 43.2304 26.2469 43.2837 24.4946C43.3627 21.8569 41.3098 19.7165 38.8715 19.7109H38.8674H38.8605C36.4237 19.7166 34.3683 21.8566 34.4501 24.4946C34.502 26.2466 35.02 27.6628 35.6967 28.7425C35.8101 28.9202 35.9263 29.0899 36.0466 29.2511C36.0644 29.2811 36.0822 29.3139 36.1 29.3467C38.0764 30.164 39.3801 32.0828 39.3801 34.2401V36.6919H47.4107V34.9096C47.4104 34.0429 46.8486 33.3103 46.0658 33.0504L46.0661 33.0503Z" fill="#F98B1D"/>
<path d="M13.9909 29.2511C14.1096 29.0899 14.2274 28.9205 14.3408 28.7425C15.0172 27.6628 15.5352 26.2469 15.5874 24.4946C15.6695 21.8569 13.6135 19.7165 11.177 19.7109H11.1701H11.166C8.72767 19.7166 6.67479 21.8566 6.75413 24.4946C6.80755 26.2466 7.32397 27.6628 8.00195 28.7425C8.11379 28.9202 8.23001 29.0899 8.35029 29.2511C8.61147 29.7047 8.86702 30.3664 8.60584 30.8828C8.03319 32.0118 4.0327 33.0284 3.97119 33.0478V33.0503C3.18797 33.3102 2.625 34.0428 2.625 34.9092V36.6915H10.6572V34.2397C10.6572 32.083 11.9612 30.1639 13.9376 29.3463C13.9551 29.3138 13.9729 29.281 13.9907 29.251L13.9909 29.2511Z" fill="#F98B1D"/>
</svg>
